<?xml version="1.0" encoding="utf-8"?><svg version="1.1" id="Layer_1" xmlns="http://www.w3.org/2000/svg" xmlns:xlink="http://www.w3.org/1999/xlink" width="16" height="16" x="0px" y="0px" viewBox="0 0 122.879 111.168" enable-background="new 0 0 122.879 111.168" xml:space="preserve"><g><path fill-rule="evenodd" clip-rule="evenodd" d="M4.429,59.641C1.971,59.627-0.022,61.694,0,64.153l0.271,29.062 c0.022,2.455,2.056,4.452,4.513,4.429l34.77-0.329l11.764-9.343v15.771c0,4.101,3.325,7.425,7.425,7.425s7.425-3.324,7.425-7.425 V40.376l17.159,13.627l34.769,0.328c2.457,0.024,4.491-1.973,4.513-4.428l0.271-29.062c0.021-2.459-1.971-4.526-4.43-4.513 l-36.426,0.196c-4.039,4.783-10.358,10.529-15.856,15.635V7.325c0-9.767-14.85-9.767-14.85,0v63.133 c-3.892-3.648-7.707-7.358-10.462-10.62L4.429,59.641L4.429,59.641z M98.088,26.358c4.955,0,8.972,4.017,8.972,8.973 c0,4.954-4.017,8.972-8.972,8.972c-4.956,0-8.973-4.018-8.973-8.972C89.115,30.375,93.132,26.358,98.088,26.358L98.088,26.358z M24.792,69.67c-4.956,0-8.972,4.018-8.972,8.972c0,4.956,4.017,8.973,8.972,8.973c4.955,0,8.972-4.017,8.972-8.973 C33.764,73.688,29.747,69.67,24.792,69.67L24.792,69.67z"/></g></svg>