<?xml version="1.0" encoding="utf-8"?>
<!-- Svg Vector Icons : http://www.onlinewebfonts.com/icon -->
<!DOCTYPE svg PUBLIC "-//W3C//DTD SVG 1.1//EN" "http://www.w3.org/Graphics/SVG/1.1/DTD/svg11.dtd">
<svg version="1.1" xmlns="http://www.w3.org/2000/svg" xmlns:xlink="http://www.w3.org/1999/xlink" width="16" height="16" x="0px" y="0px" viewBox="0 0 1000 1000" enable-background="new 0 0 1000 1000" xml:space="preserve">
<metadata> Svg Vector Icons : http://www.onlinewebfonts.com/icon </metadata>
<g><path d="M978.3,610.6c-3.9,4-7.4,7.6-10.5,11.1c-3.1,3.5-5.8,6.4-8.2,8.8c-3.1,3.2-5.8,5.5-8.1,7l-98.8-97.9c4.6-3.9,9.9-8.6,15.7-14c5.8-5.5,10.6-9.8,14.6-12.9c9.3-8.6,19.4-12.2,30.2-11.1c10.8,1.2,19.7,3.7,26.7,7.6c7.8,3.9,16.1,10.7,25,20.4c8.9,9.8,15.7,20,20.3,31c2.3,6.2,3.9,14,4.7,23.3C990.7,593.1,986.8,602.1,978.3,610.6L978.3,610.6z M799.2,789l-41.8,42L719,869.4c-10.9,10.9-20,20.2-27.3,28c-7.4,7.7-11.4,12-12.2,12.8c-3.9,3.1-8.1,6.4-12.8,10c-4.6,3.4-9.3,6.4-13.9,8.7c-4.6,2.3-11.8,5.2-21.5,8.8c-9.7,3.5-19.6,6.7-29.6,9.9c-10.1,3.1-19.8,5.8-29.1,8.1c-9.3,2.4-16.3,3.9-20.9,4.7c-9.3,1.6-15.5,0.4-18.6-3.5c-3.1-3.9-3.9-10.5-2.3-19.8c0.8-4.7,2.3-11.7,4.6-21c2.3-9.4,5-18.9,8.2-28.6c3.1-9.8,6-18.9,8.7-27.5c2.7-8.5,4.8-14.4,6.3-17.4c4.7-10.1,10.9-19,18.6-26.8l15.1-15.2l29-29.1c11.6-11.7,24.4-24.7,38.3-39c13.9-14.4,27.9-28.6,41.8-42.5c33.4-33.4,70.9-70.8,112.8-111.9l97.6,97.9L799.2,789L799.2,789z M702.2,183.2c0-15.9-12.9-28.9-28.8-28.9h-57.7V96.7h115.4c15.9,0,28.8,12.9,28.8,28.9v392.2l-57.7,63.5L702.2,183.2L702.2,183.2z M615.7,313c0,7.9-6.5,14.4-14.4,14.4H168.6c-8,0-14.4-6.5-14.4-14.4v-28.9c0-8,6.4-14.4,14.4-14.4h432.7c8,0,14.4,6.4,14.4,14.4V313L615.7,313z M558,212h-28.9c-15.9,0-28.8-12.9-28.8-28.9V67.8c0-15.9,12.9-28.9,28.8-28.9H558c15.9,0,28.8,12.9,28.8,28.9v115.4C586.9,199.1,573.9,212,558,212L558,212z M298.4,96.7h173.1v57.7H298.4V96.7L298.4,96.7z M240.7,212h-28.8c-15.9,0-28.9-12.9-28.9-28.9V67.8c0-15.9,12.9-28.9,28.9-28.9h28.8c15.9,0,28.9,12.9,28.9,28.9v115.4C269.6,199.1,256.7,212,240.7,212L240.7,212z M67.7,183.2v634.5c0,15.9,12.9,28.9,28.9,28.9H461l-52.4,57.7H38.8c-15.9,0-28.8-12.9-28.8-28.8V125.5c0-16,12.9-28.9,28.8-28.9h115.4v57.7H96.5C80.6,154.3,67.7,167.3,67.7,183.2L67.7,183.2z M168.6,788.9c-8,0-14.4-6.5-14.4-14.4v-28.9c0-8,6.4-14.4,14.4-14.4h397.2l-52.4,57.7H168.6L168.6,788.9z M615.7,659.1c0,7.9-6.5,14.4-14.4,14.4H168.6c-8,0-14.4-6.5-14.4-14.4v-28.8c0-8,6.4-14.4,14.4-14.4h432.6c8,0,14.4,6.4,14.4,14.4V659.1L615.7,659.1z M601.3,442.8H168.6c-8,0-14.4-6.5-14.4-14.4v-28.9c0-8,6.4-14.4,14.4-14.4h432.7c8,0,14.4,6.4,14.4,14.4v28.9C615.7,436.3,609.2,442.8,601.3,442.8L601.3,442.8z M615.7,543.7c0,7.9-6.5,14.4-14.4,14.4H168.6c-8,0-14.4-6.5-14.4-14.4v-28.9c0-8,6.4-14.4,14.4-14.4h432.7c8,0,14.4,6.4,14.4,14.4V543.7L615.7,543.7z"/></g>
</svg>